<svg width="174" height="43" viewBox="0 0 174 43" fill="none" xmlns="http://www.w3.org/2000/svg">
<path d="M5.14 19.9C6.03333 19.9 6.70667 19.7 7.16 19.3C7.62667 18.8867 7.86 18.36 7.86 17.72C7.86 17.16 7.68 16.7067 7.32 16.36C6.97333 16.0133 6.42 15.7267 5.66 15.5L3.92 14.98C3.06667 14.7267 2.39333 14.3533 1.9 13.86C1.42 13.3667 1.18 12.7 1.18 11.86C1.18 11.3533 1.27333 10.9 1.46 10.5C1.66 10.0867 1.94 9.74 2.3 9.46C2.66 9.18 3.08667 8.96667 3.58 8.82C4.08667 8.66 4.65333 8.58 5.28 8.58C5.81333 8.58 6.30667 8.62667 6.76 8.72C7.22667 8.8 7.62667 8.92 7.96 9.08C8.30667 9.22667 8.57333 9.39333 8.76 9.58C8.94667 9.76667 9.04 9.96 9.04 10.16C9.04 10.3467 8.99333 10.5067 8.9 10.64C8.80667 10.7733 8.68667 10.88 8.54 10.96C8.19333 10.6933 7.74 10.46 7.18 10.26C6.63333 10.06 6.02 9.96 5.34 9.96C4.55333 9.96 3.93333 10.1267 3.48 10.46C3.04 10.7933 2.82 11.26 2.82 11.86C2.82 12.3267 2.98 12.7067 3.3 13C3.62 13.2933 4.15333 13.5467 4.9 13.76L6.12 14.12C7.17333 14.4267 8 14.86 8.6 15.42C9.21333 15.9667 9.52 16.7333 9.52 17.72C9.52 18.7733 9.14 19.6267 8.38 20.28C7.62 20.9333 6.54 21.26 5.14 21.26C4.52667 21.26 3.96667 21.2067 3.46 21.1C2.96667 20.9933 2.54 20.8533 2.18 20.68C1.83333 20.5067 1.56 20.32 1.36 20.12C1.17333 19.9067 1.08 19.7 1.08 19.5C1.08 19.2733 1.14667 19.0867 1.28 18.94C1.42667 18.78 1.59333 18.6667 1.78 18.6C1.92667 18.7467 2.10667 18.9 2.32 19.06C2.53333 19.2067 2.78 19.3467 3.06 19.48C3.34 19.6 3.65333 19.7 4 19.78C4.34667 19.86 4.72667 19.9 5.14 19.9ZM23.305 14.92C23.305 15.96 23.1583 16.88 22.865 17.68C22.5717 18.4667 22.165 19.1267 21.645 19.66C21.125 20.18 20.5117 20.58 19.805 20.86C19.0983 21.1267 18.3317 21.26 17.505 21.26C16.6783 21.26 15.9117 21.1267 15.205 20.86C14.4983 20.58 13.885 20.18 13.365 19.66C12.845 19.1267 12.4383 18.4667 12.145 17.68C11.8517 16.88 11.705 15.96 11.705 14.92C11.705 13.88 11.8517 12.9667 12.145 12.18C12.4517 11.3933 12.865 10.7333 13.385 10.2C13.905 9.66667 14.5183 9.26667 15.225 9C15.9317 8.72 16.6917 8.58 17.505 8.58C18.3183 8.58 19.0783 8.72 19.785 9C20.4917 9.26667 21.105 9.66667 21.625 10.2C22.145 10.7333 22.5517 11.3933 22.845 12.18C23.1517 12.9667 23.305 13.88 23.305 14.92ZM21.645 14.92C21.645 13.32 21.265 12.0933 20.505 11.24C19.7583 10.3867 18.7583 9.96 17.505 9.96C16.8783 9.96 16.3117 10.0733 15.805 10.3C15.2983 10.5133 14.865 10.8333 14.505 11.26C14.145 11.6733 13.865 12.1867 13.665 12.8C13.4783 13.4133 13.385 14.12 13.385 14.92C13.385 16.52 13.7583 17.7467 14.505 18.6C15.2517 19.4533 16.2517 19.88 17.505 19.88C18.7717 19.88 19.7783 19.4533 20.525 18.6C21.2717 17.7467 21.645 16.52 21.645 14.92ZM35.6341 16.8C35.6341 17.48 35.5274 18.0933 35.3141 18.64C35.1141 19.1867 34.8074 19.6533 34.3941 20.04C33.9941 20.4267 33.5007 20.7267 32.9141 20.94C32.3274 21.1533 31.6541 21.26 30.8941 21.26C30.1341 21.26 29.4607 21.1533 28.8741 20.94C28.2874 20.7267 27.7941 20.4267 27.3941 20.04C26.9941 19.6533 26.6874 19.1867 26.4741 18.64C26.2741 18.0933 26.1741 17.48 26.1741 16.8V8.88C26.2407 8.85333 26.3407 8.82667 26.4741 8.8C26.6207 8.76 26.7741 8.74 26.9341 8.74C27.5074 8.74 27.7941 8.98667 27.7941 9.48V16.66C27.7941 17.1933 27.8741 17.66 28.0341 18.06C28.1941 18.46 28.4074 18.8 28.6741 19.08C28.9541 19.3467 29.2807 19.5467 29.6541 19.68C30.0407 19.8133 30.4541 19.88 30.8941 19.88C31.3341 19.88 31.7407 19.8133 32.1141 19.68C32.5007 19.5467 32.8274 19.3467 33.0941 19.08C33.3741 18.8 33.5941 18.46 33.7541 18.06C33.9141 17.66 33.9941 17.1933 33.9941 16.66V8.88C34.0607 8.85333 34.1607 8.82667 34.2941 8.8C34.4407 8.76 34.5941 8.74 34.7541 8.74C35.3407 8.74 35.6341 8.98667 35.6341 9.48V16.8ZM40.8223 20.96C40.7423 20.9867 40.6357 21.0133 40.5023 21.04C40.369 21.08 40.2223 21.1 40.0623 21.1C39.4757 21.1 39.1823 20.8533 39.1823 20.36V9.72C39.1823 9.50667 39.2357 9.34667 39.3423 9.24C39.449 9.12 39.6157 9.02667 39.8423 8.96C40.229 8.84 40.7023 8.75333 41.2623 8.7C41.8357 8.64667 42.389 8.62 42.9223 8.62C44.6023 8.62 45.849 8.96 46.6623 9.64C47.489 10.3067 47.9023 11.26 47.9023 12.5C47.9023 13.42 47.6623 14.1933 47.1823 14.82C46.7157 15.4467 46.0023 15.8933 45.0423 16.16C45.3757 16.5867 45.709 17.0133 46.0423 17.44C46.3757 17.8667 46.689 18.2733 46.9823 18.66C47.289 19.0333 47.5557 19.3733 47.7823 19.68C48.0223 19.9867 48.209 20.2267 48.3423 20.4C48.289 20.6267 48.169 20.8067 47.9823 20.94C47.809 21.0733 47.629 21.14 47.4423 21.14C47.2157 21.14 47.029 21.0867 46.8823 20.98C46.7357 20.8733 46.5823 20.7067 46.4223 20.48L43.5023 16.4H40.8223V20.96ZM43.1023 15.04C44.089 15.04 44.8623 14.8267 45.4223 14.4C45.9823 13.9733 46.2623 13.34 46.2623 12.5C46.2623 11.66 45.969 11.0333 45.3823 10.62C44.7957 10.1933 43.9557 9.98 42.8623 9.98C42.5023 9.98 42.1357 10 41.7623 10.04C41.4023 10.0667 41.0823 10.1067 40.8023 10.16V15.04H43.1023ZM57.8959 17.76H52.5359C52.4426 18.0267 52.3426 18.32 52.2359 18.64C52.1293 18.9467 52.0226 19.2533 51.9159 19.56C51.8226 19.8533 51.7293 20.1333 51.6359 20.4C51.5426 20.6533 51.4693 20.8667 51.4159 21.04C51.2293 21.12 51.0093 21.16 50.7559 21.16C50.5426 21.16 50.3493 21.1067 50.1759 21C50.0159 20.88 49.9359 20.6933 49.9359 20.44C49.9359 20.32 49.9559 20.2 49.9959 20.08C50.0359 19.9467 50.0826 19.8067 50.1359 19.66C50.3359 19.1 50.5893 18.38 50.8959 17.5C51.2159 16.62 51.5559 15.6867 51.9159 14.7C52.2893 13.7 52.6626 12.7 53.0359 11.7C53.4226 10.6867 53.7759 9.78 54.0959 8.98C54.2026 8.92667 54.3626 8.87333 54.5759 8.82C54.7893 8.76667 55.0093 8.74 55.2359 8.74C55.5026 8.74 55.7559 8.78 55.9959 8.86C56.2493 8.94 56.4093 9.07333 56.4759 9.26C56.7959 10.0333 57.1359 10.92 57.4959 11.92C57.8693 12.9067 58.2426 13.92 58.6159 14.96C58.9893 16 59.3426 17.0267 59.6759 18.04C60.0226 19.04 60.3293 19.9467 60.5959 20.76C60.4893 20.88 60.3626 20.9733 60.2159 21.04C60.0693 21.12 59.9026 21.16 59.7159 21.16C59.4626 21.16 59.2693 21.1067 59.1359 21C59.0026 20.88 58.8893 20.6867 58.7959 20.42L57.8959 17.76ZM55.2159 10.1C55.0693 10.5 54.9026 10.96 54.7159 11.48C54.5293 11.9867 54.3359 12.52 54.1359 13.08C53.9359 13.64 53.7359 14.2067 53.5359 14.78C53.3359 15.3533 53.1493 15.9 52.9759 16.42H57.4759C57.2759 15.82 57.0693 15.22 56.8559 14.62C56.6426 14.0067 56.4359 13.42 56.2359 12.86C56.0493 12.3 55.8693 11.7867 55.6959 11.32C55.5359 10.84 55.4026 10.4333 55.2959 10.1H55.2159ZM67.4088 20.84C67.3421 20.9067 67.2154 20.9667 67.0288 21.02C66.8421 21.0733 66.6354 21.1 66.4088 21.1C66.1554 21.1 65.9288 21.0667 65.7288 21C65.5288 20.92 65.3954 20.8067 65.3288 20.66C65.1554 20.3133 64.9488 19.8667 64.7088 19.32C64.4821 18.7733 64.2354 18.1667 63.9688 17.5C63.7154 16.82 63.4488 16.1067 63.1688 15.36C62.9021 14.6133 62.6421 13.8733 62.3888 13.14C62.1354 12.4067 61.8954 11.7 61.6688 11.02C61.4421 10.3267 61.2488 9.70667 61.0888 9.16C61.1688 9.05333 61.2888 8.95333 61.4488 8.86C61.6088 8.76667 61.7888 8.72 61.9888 8.72C62.2421 8.72 62.4288 8.78 62.5488 8.9C62.6688 9.02 62.7688 9.2 62.8488 9.44C63.4488 11.1867 64.0221 12.8733 64.5688 14.5C65.1154 16.1267 65.7154 17.78 66.3688 19.46H66.4488C66.7421 18.7 67.0421 17.8933 67.3488 17.04C67.6688 16.1733 67.9754 15.2867 68.2688 14.38C68.5754 13.46 68.8688 12.5333 69.1488 11.6C69.4421 10.6667 69.7021 9.75333 69.9288 8.86C70.1021 8.76667 70.3288 8.72 70.6088 8.72C70.8488 8.72 71.0421 8.78 71.1888 8.9C71.3354 9.02 71.4088 9.2 71.4088 9.44C71.4088 9.64 71.3288 10.02 71.1688 10.58C71.0221 11.1267 70.8288 11.7667 70.5888 12.5C70.3488 13.2333 70.0754 14.02 69.7688 14.86C69.4754 15.7 69.1821 16.5067 68.8888 17.28C68.5954 18.0533 68.3154 18.76 68.0488 19.4C67.7821 20.04 67.5688 20.52 67.4088 20.84Z" fill="#5A9CBC"/>
<path d="M97.66 21.18C97.66 21.3667 97.6 21.5267 97.48 21.66C97.3733 21.7933 97.2467 21.8933 97.1 21.96C96.7533 21.72 96.3467 21.4933 95.88 21.28C95.4133 21.0667 94.8067 20.96 94.06 20.96C93.4467 20.96 92.88 21.0667 92.36 21.28C91.84 21.4933 91.3867 21.8067 91 22.22C90.6133 22.6333 90.3067 23.1533 90.08 23.78C89.8667 24.4067 89.76 25.1267 89.76 25.94C89.76 26.7667 89.8667 27.4867 90.08 28.1C90.2933 28.7133 90.5867 29.2267 90.96 29.64C91.3467 30.0533 91.8067 30.3667 92.34 30.58C92.8733 30.78 93.4667 30.88 94.12 30.88C94.8133 30.88 95.4133 30.7867 95.92 30.6C96.44 30.4 96.8733 30.1667 97.22 29.9C97.3533 29.9533 97.48 30.0533 97.6 30.2C97.72 30.3333 97.78 30.4933 97.78 30.68C97.78 30.96 97.62 31.2133 97.3 31.44C96.9933 31.6533 96.5733 31.84 96.04 32C95.5067 32.1733 94.8267 32.26 94 32.26C93.16 32.26 92.38 32.1267 91.66 31.86C90.94 31.5933 90.3133 31.2 89.78 30.68C89.26 30.1467 88.8467 29.4867 88.54 28.7C88.2333 27.9133 88.08 26.9933 88.08 25.94C88.08 24.8867 88.2333 23.9667 88.54 23.18C88.86 22.38 89.2867 21.7133 89.82 21.18C90.3533 20.6467 90.9733 20.2467 91.68 19.98C92.4 19.7133 93.1533 19.58 93.94 19.58C94.4867 19.58 94.9867 19.6267 95.44 19.72C95.9067 19.8133 96.3 19.94 96.62 20.1C96.9533 20.2467 97.2067 20.42 97.38 20.62C97.5667 20.8067 97.66 20.9933 97.66 21.18ZM110.058 31.96C109.978 31.9867 109.871 32.0133 109.738 32.04C109.604 32.08 109.458 32.1 109.298 32.1C108.711 32.1 108.418 31.8533 108.418 31.36V26.52H102.178V31.96C102.098 31.9867 101.991 32.0133 101.858 32.04C101.724 32.08 101.578 32.1 101.418 32.1C100.831 32.1 100.538 31.8533 100.538 31.36V19.88C100.604 19.8533 100.704 19.8267 100.838 19.8C100.984 19.76 101.138 19.74 101.298 19.74C101.884 19.74 102.178 19.9867 102.178 20.48V25.16H108.418V19.88C108.484 19.8533 108.584 19.8267 108.718 19.8C108.864 19.76 109.018 19.74 109.178 19.74C109.764 19.74 110.058 19.9867 110.058 20.48V31.96ZM120.404 28.76H115.044C114.95 29.0267 114.85 29.32 114.744 29.64C114.637 29.9467 114.53 30.2533 114.424 30.56C114.33 30.8533 114.237 31.1333 114.144 31.4C114.05 31.6533 113.977 31.8667 113.924 32.04C113.737 32.12 113.517 32.16 113.264 32.16C113.05 32.16 112.857 32.1067 112.684 32C112.524 31.88 112.444 31.6933 112.444 31.44C112.444 31.32 112.464 31.2 112.504 31.08C112.544 30.9467 112.59 30.8067 112.644 30.66C112.844 30.1 113.097 29.38 113.404 28.5C113.724 27.62 114.064 26.6867 114.424 25.7C114.797 24.7 115.17 23.7 115.544 22.7C115.93 21.6867 116.284 20.78 116.604 19.98C116.71 19.9267 116.87 19.8733 117.084 19.82C117.297 19.7667 117.517 19.74 117.744 19.74C118.01 19.74 118.264 19.78 118.504 19.86C118.757 19.94 118.917 20.0733 118.984 20.26C119.304 21.0333 119.644 21.92 120.004 22.92C120.377 23.9067 120.75 24.92 121.124 25.96C121.497 27 121.85 28.0267 122.184 29.04C122.53 30.04 122.837 30.9467 123.104 31.76C122.997 31.88 122.87 31.9733 122.724 32.04C122.577 32.12 122.41 32.16 122.224 32.16C121.97 32.16 121.777 32.1067 121.644 32C121.51 31.88 121.397 31.6867 121.304 31.42L120.404 28.76ZM117.724 21.1C117.577 21.5 117.41 21.96 117.224 22.48C117.037 22.9867 116.844 23.52 116.644 24.08C116.444 24.64 116.244 25.2067 116.044 25.78C115.844 26.3533 115.657 26.9 115.484 27.42H119.984C119.784 26.82 119.577 26.22 119.364 25.62C119.15 25.0067 118.944 24.42 118.744 23.86C118.557 23.3 118.377 22.7867 118.204 22.32C118.044 21.84 117.91 21.4333 117.804 21.1H117.724ZM126.34 32.1C125.753 32.1 125.46 31.86 125.46 31.38V20.08C125.7 19.84 126.06 19.72 126.54 19.72C126.86 19.72 127.133 19.7867 127.36 19.92C127.586 20.04 127.793 20.2667 127.98 20.6L131.8 27C131.96 27.28 132.126 27.58 132.3 27.9C132.473 28.2067 132.64 28.52 132.8 28.84C132.96 29.1467 133.106 29.44 133.24 29.72C133.386 29.9867 133.506 30.2133 133.6 30.4L133.68 30.38C133.573 29.3 133.506 28.2133 133.48 27.12C133.466 26.0267 133.46 24.96 133.46 23.92V19.88C133.54 19.8533 133.646 19.8267 133.78 19.8C133.913 19.76 134.06 19.74 134.22 19.74C134.806 19.74 135.1 19.98 135.1 20.46V31.78C134.98 31.8867 134.826 31.9667 134.64 32.02C134.453 32.0867 134.246 32.12 134.02 32.12C133.7 32.12 133.426 32.06 133.2 31.94C132.973 31.8067 132.766 31.5733 132.58 31.24L128.78 24.84C128.62 24.5733 128.446 24.28 128.26 23.96C128.086 23.64 127.913 23.3267 127.74 23.02C127.58 22.7133 127.426 22.42 127.28 22.14C127.146 21.86 127.033 21.6267 126.94 21.44L126.86 21.46C126.926 22.1 126.98 22.8333 127.02 23.66C127.06 24.4733 127.08 25.2467 127.08 25.98V31.96C127.013 31.9867 126.906 32.0133 126.76 32.04C126.626 32.08 126.486 32.1 126.34 32.1ZM147.183 25.78C147.183 24.9267 147.049 24.2 146.783 23.6C146.529 22.9867 146.176 22.4867 145.723 22.1C145.283 21.7133 144.763 21.4333 144.163 21.26C143.576 21.0733 142.943 20.98 142.263 20.98C141.836 20.98 141.463 20.9933 141.143 21.02C140.836 21.0467 140.549 21.0867 140.283 21.14V30.66C140.603 30.74 140.943 30.7933 141.303 30.82C141.676 30.8467 142.056 30.86 142.443 30.86C144.016 30.86 145.196 30.4333 145.983 29.58C146.783 28.7267 147.183 27.46 147.183 25.78ZM148.843 25.78C148.843 26.8733 148.689 27.8267 148.383 28.64C148.089 29.44 147.663 30.1067 147.103 30.64C146.556 31.1733 145.889 31.5733 145.103 31.84C144.316 32.0933 143.436 32.22 142.463 32.22C142.036 32.22 141.556 32.2 141.023 32.16C140.489 32.1333 139.983 32.0467 139.503 31.9C138.943 31.7267 138.663 31.42 138.663 30.98V20.7C138.663 20.4867 138.716 20.3267 138.823 20.22C138.929 20.1 139.096 20.0067 139.323 19.94C139.736 19.8067 140.203 19.72 140.723 19.68C141.243 19.64 141.763 19.62 142.283 19.62C143.256 19.62 144.143 19.7533 144.943 20.02C145.756 20.2733 146.449 20.66 147.023 21.18C147.596 21.6867 148.043 22.3267 148.363 23.1C148.683 23.86 148.843 24.7533 148.843 25.78ZM153.35 31.96C153.27 31.9867 153.163 32.0133 153.03 32.04C152.896 32.08 152.75 32.1 152.59 32.1C152.003 32.1 151.71 31.8533 151.71 31.36V20.72C151.71 20.5067 151.763 20.3467 151.87 20.24C151.976 20.12 152.143 20.0267 152.37 19.96C152.756 19.84 153.23 19.7533 153.79 19.7C154.363 19.6467 154.916 19.62 155.45 19.62C157.13 19.62 158.376 19.96 159.19 20.64C160.016 21.3067 160.43 22.26 160.43 23.5C160.43 24.42 160.19 25.1933 159.71 25.82C159.243 26.4467 158.53 26.8933 157.57 27.16C157.903 27.5867 158.236 28.0133 158.57 28.44C158.903 28.8667 159.216 29.2733 159.51 29.66C159.816 30.0333 160.083 30.3733 160.31 30.68C160.55 30.9867 160.736 31.2267 160.87 31.4C160.816 31.6267 160.696 31.8067 160.51 31.94C160.336 32.0733 160.156 32.14 159.97 32.14C159.743 32.14 159.556 32.0867 159.41 31.98C159.263 31.8733 159.11 31.7067 158.95 31.48L156.03 27.4H153.35V31.96ZM155.63 26.04C156.616 26.04 157.39 25.8267 157.95 25.4C158.51 24.9733 158.79 24.34 158.79 23.5C158.79 22.66 158.496 22.0333 157.91 21.62C157.323 21.1933 156.483 20.98 155.39 20.98C155.03 20.98 154.663 21 154.29 21.04C153.93 21.0667 153.61 21.1067 153.33 21.16V26.04H155.63ZM170.423 28.76H165.063C164.97 29.0267 164.87 29.32 164.763 29.64C164.657 29.9467 164.55 30.2533 164.443 30.56C164.35 30.8533 164.257 31.1333 164.163 31.4C164.07 31.6533 163.997 31.8667 163.943 32.04C163.757 32.12 163.537 32.16 163.283 32.16C163.07 32.16 162.877 32.1067 162.703 32C162.543 31.88 162.463 31.6933 162.463 31.44C162.463 31.32 162.483 31.2 162.523 31.08C162.563 30.9467 162.61 30.8067 162.663 30.66C162.863 30.1 163.117 29.38 163.423 28.5C163.743 27.62 164.083 26.6867 164.443 25.7C164.817 24.7 165.19 23.7 165.563 22.7C165.95 21.6867 166.303 20.78 166.623 19.98C166.73 19.9267 166.89 19.8733 167.103 19.82C167.317 19.7667 167.537 19.74 167.763 19.74C168.03 19.74 168.283 19.78 168.523 19.86C168.777 19.94 168.937 20.0733 169.003 20.26C169.323 21.0333 169.663 21.92 170.023 22.92C170.397 23.9067 170.77 24.92 171.143 25.96C171.517 27 171.87 28.0267 172.203 29.04C172.55 30.04 172.857 30.9467 173.123 31.76C173.017 31.88 172.89 31.9733 172.743 32.04C172.597 32.12 172.43 32.16 172.243 32.16C171.99 32.16 171.797 32.1067 171.663 32C171.53 31.88 171.417 31.6867 171.323 31.42L170.423 28.76ZM167.743 21.1C167.597 21.5 167.43 21.96 167.243 22.48C167.057 22.9867 166.863 23.52 166.663 24.08C166.463 24.64 166.263 25.2067 166.063 25.78C165.863 26.3533 165.677 26.9 165.503 27.42H170.003C169.803 26.82 169.597 26.22 169.383 25.62C169.17 25.0067 168.963 24.42 168.763 23.86C168.577 23.3 168.397 22.7867 168.223 22.32C168.063 21.84 167.93 21.4333 167.823 21.1H167.743Z" fill="#3E738F"/>
<line x1="84.9565" y1="7.27647" x2="76.2765" y2="31.7848" stroke="#3E738F" stroke-width="2" stroke-linecap="round"/>
</svg>
